<?xml version="1.0" encoding="utf-8"?>
<!-- Generator: Adobe Illustrator 21.1.0, SVG Export Plug-In . SVG Version: 6.00 Build 0)  -->
<svg version="1.1" id="Layer_1" xmlns="http://www.w3.org/2000/svg" xmlns:xlink="http://www.w3.org/1999/xlink" x="0px" y="0px"
	 viewBox="0 0 1052.9 615" style="enable-background:new 0 0 1052.9 615;" xml:space="preserve">
<style type="text/css">
	.st0{fill:#C7B299;}
	.st1{fill:#AD937B;}
	.st2{fill:#F6AA32;}
	.st3{fill:#CC8217;}
	.st4{fill:#1C1306;}
	.st5{fill:#F6AF33;}
	.st6{fill:#252F3E;}
	.st7{fill:#FF9900;}
</style>
<title>AWS_user_groups</title>
<g>
	<g id="Layer_3">
		<g>
			<path class="st0" d="M221.1,222h4.5l2.5-5.5h8c-8-8-17.6-46.2-17.6-46.2l4.5-3.5h0.1c2.9-0.2,5.1-2.8,4.8-5.7
				c0-0.2,0-0.4-0.1-0.6l-4.3-21.3c-5.5-27.1-20.1-40.7-20.1-40.7c7-0.5,5-9,5-9c-11.1,6-24.6-3-47.8-7s-35.6,18-35.6,18
				c-12,1-15,12.5-15,12.5c-39.2,2-24.6,21.1-24.6,21.1c-0.7,7.8,2.7,15.4,9,20.1l4.5-2.5l4.5-0.5c4.5-16,34.2-7.5,24.6,4.5
				s-21,2.5-21,2.5c-21.6,17.6,0,25.6,0,25.6c-2.5,2.5-0.5,15.6-1.5,21.1c-0.6,3.4-1.4,6.7-2.5,10c-2-4.5-6.5-2-6.5-2
				c-18.6-10.1-19.6,5-19.6,5s44.8,36.9,27.4,98.1c-27.4,96.5,73.2,92,101.8,71.4s16-116.7,16-116.7l7.5-7h6.5
				C226.1,256.2,221.1,222,221.1,222z M139.9,343c-5.3,0-9.5-4.3-9.5-9.5s4.3-9.5,9.5-9.5s9.5,4.3,9.5,9.5l0,0
				C149.4,338.7,145.1,343,139.9,343z"/>
			<path class="st1" d="M159.7,156c-15.6,29.8-10.3,66.3-10.3,66.3l9.5,17.8l-39.2,17.2l-0.2-0.6c-5.4-22.8-0.8-46.7,12.6-65.9
				c39.5-56.6,32.9-95.7,32.9-95.7S175.2,126.2,159.7,156z M163.5,88.1c0,0,21.5,23.6-5,79.4c-12.9,27.2-6.3,49.2-6.3,49.2l19.7-3.6
				c0,0-10-32.8-1.5-56.4C184.8,116.8,163.5,88.1,163.5,88.1z M172.6,90.7c0,0,22-0.3,13.3,57.3s-3.1,104.7-3.1,104.7l38.1,10.8
				c0,0-18-43.4-13.3-55.4l-4.5,0.6c-4.4,0.5-8.4-2.6-8.9-7c-0.1-0.7-0.1-1.3,0-2c3.4-23.5,10.3-80-0.3-97.1
				C185.1,88.1,172.6,90.7,172.6,90.7L172.6,90.7z M208.8,203.6l12.1-2.3c0,0-11.8-50.8-11-72.4S189.8,93,189.8,93
				s14.2,10.9,12.2,42.3c-1.2,19.1-3.2,44.9-3.6,59.4c-0.1,4.9,3.7,8.9,8.6,9C207.6,203.8,208.2,203.7,208.8,203.6z M174.8,271.5
				c10.1,0.3,9-10.7,9-10.7s-1.6,8-8.9,7.4c-4.2-0.4-7.8-3.3-9.1-7.4C165.8,260.9,163.3,271.2,174.8,271.5z M202.4,295.7
				c10.1,0.3,9-10.7,9-10.7s-1.6,8-8.9,7.4c-4.3-0.4-7.9-3.3-9.1-7.4C193.4,285,190.9,295.3,202.4,295.7L202.4,295.7z M189.8,316.9
				c10.1,0.3,9-10.7,9-10.7s-1.6,8-8.9,7.4c-4.2-0.4-7.8-3.3-9.1-7.4C180.9,306.2,178.4,316.5,189.8,316.9z M207.5,343.2
				c10.1,0.3,9-10.7,9-10.7s-1.6,8-8.9,7.4c-4.2-0.4-7.8-3.3-9.1-7.4C198.6,332.5,196.1,342.8,207.5,343.2z M179.1,356.7
				c10.1,0.3,9-10.7,9-10.7s-1.6,8-8.9,7.4c-4.2-0.4-7.8-3.3-9.1-7.4C170.2,346,167.7,356.3,179.1,356.7z M158.4,374.7
				c9,4.5,12.6-5.9,12.6-5.9s-4.8,6.6-11.1,2.9c-3.7-2.1-5.7-6.3-5.1-10.5C154.8,361.2,148.2,369.5,158.4,374.7L158.4,374.7z
				 M146.8,393.7c9,4.5,12.6-5.9,12.6-5.9s-4.8,6.6-11.1,2.9c-3.7-2.1-5.7-6.3-5.1-10.5C143.1,380.2,136.6,388.5,146.8,393.7
				L146.8,393.7z M125.8,362.5c-5.2,8.7,5,13,5,13s-6.3-5.2-2.1-11.3c2.4-3.5,6.7-5.3,10.8-4.4C139.5,359.8,131.6,352.6,125.8,362.5
				L125.8,362.5z M112.1,316.6c-5.5-1.8-6.7,4.4-6.7,4.4s2.2-4.1,6.1-2.6c2.3,0.9,3.8,3.1,3.8,5.5
				C115.3,323.9,118.3,318.7,112.1,316.6L112.1,316.6z M122,335c-5.5-1.8-6.7,4.4-6.7,4.4s2.2-4.1,6.1-2.6c2.3,0.9,3.8,3.1,3.8,5.5
				C125.2,342.3,128.2,337.1,122,335z M198.2,379.2c10.1,0.3,9-10.7,9-10.7s-1.6,8-8.9,7.4c-4.2-0.4-7.8-3.3-9.1-7.4
				C189.3,368.5,186.8,378.8,198.2,379.2L198.2,379.2z M130.3,307.5c0,0,18.8-22.8,21-34.5s-17.4-13-16.1-6.7s-7,39.6-7,39.6
				L130.3,307.5z M165.5,301.5c9.8-1.6-1.9-19.3-9.1-19.3s-23.5,25.3-23.5,25.3C150.4,298.6,155.8,303,165.5,301.5L165.5,301.5z
				 M134.2,312.5c0,0,24.3-3.8,31.3,7.6s17.8-32.7-33.9-10.2L134.2,312.5z M136.2,317.6c0,0,19.9-1.5,20.2,25.4
				c0,0,21.6-35.2-21.8-28.9L136.2,317.6z M132.9,262.5c0,0-4.4-7.5-9.2-1.6c-4.7,5.8,2,37.3-2.2,43.8h4.9
				C126.5,304.6,135.5,271.7,132.9,262.5L132.9,262.5z M133.9,110.4c0,0-5,4.8-11.2,5.6c-1.4,0.2-2.8-0.4-3.7-1.4
				c-2-2.3-5.1-6.4-0.9-7.2C124,106.3,128.5,113.1,133.9,110.4L133.9,110.4z M125.4,112.3c0-1.6-1.3-2.8-2.8-2.8
				c-1.6,0-2.8,1.3-2.8,2.8c0,1.6,1.3,2.8,2.8,2.8l0,0C124.2,115.1,125.4,113.9,125.4,112.3L125.4,112.3L125.4,112.3z M102.5,149.2
				c0,0,3.9-10.2,15.1-9s14,9,14,9s-2.1-21.9-25-17.6c-19.3,3.7-12.1,20.7-12.1,20.7l3.8-3.1L102.5,149.2L102.5,149.2z M101.7,175.7
				c29.4,0,29.9-21.2,29.9-21.2c-11.9,15.1-24.1,6.6-24.1,6.6C96.8,169.9,101.7,175.7,101.7,175.7L101.7,175.7z M88.4,121.6
				c0,0-2.8,3.4-2.8,5.6s1.3,3.9,2.8,3.9s2.8-1.7,2.8-3.9S88.4,121.6,88.4,121.6L88.4,121.6z M131.6,98.5h8.2c0,0,9.8-13.2,23.8-8
				S192,92,192,92s-13.3,0-24.8-4C153.1,83.2,140.8,83.5,131.6,98.5L131.6,98.5z M82,216.6c0,0,33.9,32.5,28.3,86.8
				c0,0,13.5-42.6-17.1-85C88.2,211.4,82,216.6,82,216.6z"/>
		</g>
		<path class="st2" d="M221.1,222h4.5l2.5-5.5h8c-8-8-17.6-46.2-17.6-46.2l4.5-3.5h0.1c2.9-0.2,5.1-2.8,4.8-5.7c0-0.2,0-0.4-0.1-0.6
			l-4.3-21.3c-5.5-27.1-20.1-40.7-20.1-40.7c7-0.5,5-9,5-9c-11.1,6-24.6-3-47.8-7s-35.6,18-35.6,18c-12,1-15,12.5-15,12.5
			c-39.2,2-24.6,21.1-24.6,21.1c-0.7,7.8,2.7,15.4,9,20.1l4.5-2.5l4.5-0.5c4.5-16,34.2-7.5,24.6,4.5s-21,2.5-21,2.5
			c-21.6,17.6,0,25.6,0,25.6c-2.5,2.5-0.5,15.6-1.5,21.1c-0.6,3.4-1.4,6.7-2.5,10c-2-4.5-6.5-2-6.5-2c-18.6-10.1-19.6,5-19.6,5
			s44.8,36.9,27.4,98.1c-27.4,96.5,73.2,92,101.8,71.4s16-116.7,16-116.7l7.5-7h6.5C226.1,256.2,221.1,222,221.1,222z M139.9,343
			c-5.3,0-9.5-4.3-9.5-9.5s4.3-9.5,9.5-9.5s9.5,4.3,9.5,9.5l0,0C149.4,338.7,145.1,343,139.9,343z"/>
		<path class="st3" d="M159.7,156c-15.6,29.8-10.3,66.3-10.3,66.3l9.5,17.8l-39.2,17.2l-0.2-0.6c-5.4-22.8-0.8-46.7,12.6-65.9
			c39.5-56.6,32.9-95.7,32.9-95.7S175.2,126.2,159.7,156z M163.5,88.1c0,0,21.5,23.6-5,79.4c-12.9,27.2-6.3,49.2-6.3,49.2l19.7-3.6
			c0,0-10-32.8-1.5-56.4C184.8,116.8,163.5,88.1,163.5,88.1z M172.6,90.7c0,0,22-0.3,13.3,57.3s-3.1,104.7-3.1,104.7l38.1,10.8
			c0,0-18-43.4-13.3-55.4l-4.5,0.6c-4.4,0.5-8.4-2.6-8.9-7c-0.1-0.7-0.1-1.3,0-2c3.4-23.5,10.3-80-0.3-97.1
			C185.1,88.1,172.6,90.7,172.6,90.7L172.6,90.7z M208.8,203.6l12.1-2.3c0,0-11.8-50.8-11-72.4S189.8,93,189.8,93
			s14.2,10.9,12.2,42.3c-1.2,19.1-3.2,44.9-3.6,59.4c-0.1,4.9,3.7,8.9,8.6,9C207.6,203.8,208.2,203.7,208.8,203.6z M174.8,271.5
			c10.1,0.3,9-10.7,9-10.7s-1.6,8-8.9,7.4c-4.2-0.4-7.8-3.3-9.1-7.4C165.8,260.9,163.3,271.2,174.8,271.5z M202.4,295.7
			c10.1,0.3,9-10.7,9-10.7s-1.6,8-8.9,7.4c-4.3-0.4-7.9-3.3-9.1-7.4C193.4,285,190.9,295.3,202.4,295.7L202.4,295.7z M189.8,316.9
			c10.1,0.3,9-10.7,9-10.7s-1.6,8-8.9,7.4c-4.2-0.4-7.8-3.3-9.1-7.4C180.9,306.2,178.4,316.5,189.8,316.9z M207.5,343.2
			c10.1,0.3,9-10.7,9-10.7s-1.6,8-8.9,7.4c-4.2-0.4-7.8-3.3-9.1-7.4C198.6,332.5,196.1,342.8,207.5,343.2z M179.1,356.7
			c10.1,0.3,9-10.7,9-10.7s-1.6,8-8.9,7.4c-4.2-0.4-7.8-3.3-9.1-7.4C170.2,346,167.7,356.3,179.1,356.7z M158.4,374.7
			c9,4.5,12.6-5.9,12.6-5.9s-4.8,6.6-11.1,2.9c-3.7-2.1-5.7-6.3-5.1-10.5C154.8,361.2,148.2,369.5,158.4,374.7L158.4,374.7z
			 M146.8,393.7c9,4.5,12.6-5.9,12.6-5.9s-4.8,6.6-11.1,2.9c-3.7-2.1-5.7-6.3-5.1-10.5C143.1,380.2,136.6,388.5,146.8,393.7
			L146.8,393.7z M125.8,362.5c-5.2,8.7,5,13,5,13s-6.3-5.2-2.1-11.3c2.4-3.5,6.7-5.3,10.8-4.4C139.5,359.8,131.6,352.6,125.8,362.5
			L125.8,362.5z M112.1,316.6c-5.5-1.8-6.7,4.4-6.7,4.4s2.2-4.1,6.1-2.6c2.3,0.9,3.8,3.1,3.8,5.5
			C115.3,323.9,118.3,318.7,112.1,316.6L112.1,316.6z M122,335c-5.5-1.8-6.7,4.4-6.7,4.4s2.2-4.1,6.1-2.6c2.3,0.9,3.8,3.1,3.8,5.5
			C125.2,342.3,128.2,337.1,122,335z M198.2,379.2c10.1,0.3,9-10.7,9-10.7s-1.6,8-8.9,7.4c-4.2-0.4-7.8-3.3-9.1-7.4
			C189.3,368.5,186.8,378.8,198.2,379.2L198.2,379.2z M130.3,307.5c0,0,18.8-22.8,21-34.5s-17.4-13-16.1-6.7s-7,39.6-7,39.6
			L130.3,307.5z M165.5,301.5c9.8-1.6-1.9-19.3-9.1-19.3s-23.5,25.3-23.5,25.3C150.4,298.6,155.8,303,165.5,301.5L165.5,301.5z
			 M134.2,312.5c0,0,24.3-3.8,31.3,7.6s17.8-32.7-33.9-10.2L134.2,312.5z M136.2,317.6c0,0,19.9-1.5,20.2,25.4
			c0,0,21.6-35.2-21.8-28.9L136.2,317.6z M132.9,262.5c0,0-4.4-7.5-9.2-1.6c-4.7,5.8,2,37.3-2.2,43.8h4.9
			C126.5,304.6,135.5,271.7,132.9,262.5L132.9,262.5z M133.9,110.4c0,0-5,4.8-11.2,5.6c-1.4,0.2-2.8-0.4-3.7-1.4
			c-2-2.3-5.1-6.4-0.9-7.2C124,106.3,128.5,113.1,133.9,110.4L133.9,110.4z M125.4,112.3c0-1.6-1.3-2.8-2.8-2.8
			c-1.6,0-2.8,1.3-2.8,2.8c0,1.6,1.3,2.8,2.8,2.8l0,0C124.2,115.1,125.4,113.9,125.4,112.3L125.4,112.3L125.4,112.3z M102.5,149.2
			c0,0,3.9-10.2,15.1-9s14,9,14,9s-2.1-21.9-25-17.6c-19.3,3.7-12.1,20.7-12.1,20.7l3.8-3.1L102.5,149.2L102.5,149.2z M101.7,175.7
			c29.4,0,29.9-21.2,29.9-21.2c-11.9,15.1-24.1,6.6-24.1,6.6C96.8,169.9,101.7,175.7,101.7,175.7L101.7,175.7z M88.4,121.6
			c0,0-2.8,3.4-2.8,5.6s1.3,3.9,2.8,3.9s2.8-1.7,2.8-3.9S88.4,121.6,88.4,121.6L88.4,121.6z M131.6,98.5h8.2c0,0,9.8-13.2,23.8-8
			S192,92,192,92s-13.3,0-24.8-4C153.1,83.2,140.8,83.5,131.6,98.5L131.6,98.5z M82,216.6c0,0,33.9,32.5,28.3,86.8
			c0,0,13.5-42.6-17.1-85C88.2,211.4,82,216.6,82,216.6z"/>
		<path class="st4" d="M480.8,263.2v-28.6h5.9V263c0,8.5,4.5,13.9,13.2,13.9s13.2-5.4,13.2-13.9v-28.4h5.9v28.5
			c0,11.6-6.4,19-19.1,19S480.8,274.7,480.8,263.2z"/>
		<path class="st4" d="M527.1,274.8l3.5-4.5c3.7,4.3,9,6.7,14.6,6.7c8.3,0,11-4.5,11-8.1c0-12-27.7-5.3-27.7-22
			c0-7.7,6.9-13,16.1-13c7.1,0,12.6,2.4,16.5,6.6l-3.5,4.3c-3.5-3.9-8.4-5.6-13.5-5.6c-5.5,0-9.6,3-9.6,7.4
			c0,10.5,27.7,4.5,27.7,21.9c0,6.7-4.6,13.7-17.2,13.7C537,282.2,531,279.1,527.1,274.8z"/>
		<path class="st4" d="M570.9,281.4v-46.7h30.6v5.2h-24.8V255H601v5.2h-24.3v16.1h24.8v5.2h-30.6V281.4z"/>
		<path class="st4" d="M637.8,281.4L626,262.9h-9.4v18.5h-5.8v-46.7h18.8c8.5,0,14.7,5.5,14.7,14.1c0,8.4-5.8,13-12.2,13.6l12.6,19
			H637.8z M638.2,248.8c0-5.3-3.8-8.9-9.4-8.9h-12.2v17.8h12.2C634.3,257.7,638.2,254,638.2,248.8L638.2,248.8z"/>
		<path class="st4" d="M669.6,258.1c0-14.6,10.7-24.1,24-24.1c7.1-0.2,13.8,3.1,18.1,8.7l-4.6,2.9c-3.3-4.1-8.3-6.5-13.5-6.4
			c-10.2,0-18,7.8-18,19s7.8,19,18,19c4.7,0,9.2-1.8,12.6-5v-9.5h-16.1v-5.2H712v16.8c-4.6,5.2-11.3,8.2-18.3,8.1
			C680.3,282.3,669.6,272.6,669.6,258.1z"/>
		<path class="st4" d="M748.4,281.4l-11.8-18.5h-9.4v18.5h-5.8v-46.7h18.8c8.5,0,14.7,5.5,14.7,14.1c0,8.4-5.8,13-12.2,13.6l12.6,19
			H748.4z M748.9,248.8c0-5.3-3.8-8.9-9.4-8.9h-12.2v17.8h12.2C745,257.7,748.9,254,748.9,248.8L748.9,248.8z"/>
		<path class="st4" d="M762.2,258.1c0-13.8,9.4-24.1,23.2-24.1s23.2,10.4,23.2,24.1c0,13.8-9.5,24.1-23.2,24.1
			S762.2,271.9,762.2,258.1z M802.5,258.1c0-10.9-6.8-19-17.2-19s-17.2,8.1-17.2,19c0,11,6.7,19,17.2,19S802.5,268.9,802.5,258.1z"
			/>
		<path class="st4" d="M817.6,263.2v-28.6h5.9V263c0,8.5,4.5,13.9,13.2,13.9s13.2-5.4,13.2-13.9v-28.4h5.9v28.5
			c0,11.6-6.4,19-19.1,19S817.6,274.7,817.6,263.2z"/>
		<path class="st4" d="M866.7,281.4v-46.7h18.8c9.4,0,14.6,6.4,14.6,14.1c0,7.7-5.3,14.1-14.6,14.1h-13v18.5H866.7z M894,248.8
			c0-5.2-3.8-8.9-9.3-8.9h-12.2v17.8h12.2C890.3,257.6,894,254,894,248.8z"/>
		<path d="M252.7,384.3l10.2-14.5c7.2,7.6,17.2,11.9,27.7,11.9c10.3,0,15.2-4.6,15.2-9.7c0-15.2-50.2-4.6-50.2-37.4
			c0-14.5,12.5-26.5,33.1-26.5c13.9,0,25.4,4.2,34,12.1l-10.3,13.9c-7-6.2-16-9.6-25.4-9.5c-7.8,0-12.3,3.4-12.3,8.6
			c0,13.7,50,4.4,50,37c0,15.9-11.5,28-34.9,28C273,398.2,261,392.5,252.7,384.3z"/>
		<path d="M337.1,396.6v-87.1h18.5v87.1H337.1z"/>
		<path d="M433,396.6l-41.5-56.8v56.8H373v-87.1h19l40.4,54.7v-54.7h18.5v87.1H433z"/>
		<path d="M464,353.1c0-27.6,20.9-45.1,46.5-45.1c18,0,29.4,9.1,35.9,19.5l-15.3,8.4c-4.6-7-12.3-11.3-20.6-11.4
			c-15.9,0-27.4,12.1-27.4,28.6s11.5,28.6,27.4,28.6c7.7,0,14.9-3.4,18.4-6.7v-10.5h-23v-16.2h41.5v33.5
			c-9.3,10.6-22.9,16.6-37,16.3C484.9,398.2,464,380.5,464,353.1z"/>
		<path d="M621.5,396.6l-5.5-14.8h-37.4l-5.5,14.8h-21l33.6-87.1H609l33.6,87.1H621.5z M597.4,328l-13.6,37.5H611L597.4,328z"/>
		<path d="M650.7,396.6v-87.1h40.8c18.9,0,29.3,12.8,29.3,28.1s-10.5,28-29.3,28h-22.2v31.1L650.7,396.6z M701.8,337.5
			c0-7.3-5.6-11.8-12.9-11.8h-19.6v23.4h19.6C696.1,349.2,701.8,344.7,701.8,337.5z"/>
		<path d="M728.1,353.1c0-26.3,19.2-45.1,45.6-45.1s45.5,18.8,45.5,45.1s-19.2,45.1-45.5,45.1S728.1,379.4,728.1,353.1z
			 M800.1,353.1c0-16.3-10.3-28.6-26.4-28.6s-26.5,12.3-26.5,28.6s10.3,28.6,26.5,28.6S800.1,369.3,800.1,353.1L800.1,353.1z"/>
		<path d="M881.5,396.6l-17.1-31h-13.6v31h-18.5v-87.1H873c18.2,0,29.4,11.9,29.4,28.1c0,15.3-9.8,23.6-19.2,25.9l19.7,33.2h-21.4
			V396.6z M883.4,337.4c0-7.2-5.6-11.6-12.9-11.6h-19.6v23.5h19.6C877.7,349.3,883.3,344.9,883.4,337.4L883.4,337.4z"/>
		<path d="M916.3,396.6v-87.1H978v16.3h-43.1v18.3H977v16.3h-42.2v19.9h43.1v16.3L916.3,396.6L916.3,396.6z"/>
		<path class="st5" d="M339.3,279.4l-2.9-7.9h-20l-2.9,7.9h-11.3l18-46.7h12.5l18,46.7H339.3z M326.3,242.6l-7.3,20.1h14.6
			L326.3,242.6z"/>
		<path class="st5" d="M387.6,279.4l-8.2-32.1l-8.1,32.1h-10.6l-13.4-46.7h11.1l8.2,33.7l8.9-33.7h7.8l8.8,33.7l8.2-33.7h11.1
			l-13.3,46.7H387.6z"/>
		<path class="st5" d="M412.9,272.8l5.5-7.8c3.9,4.1,9.2,6.4,14.8,6.4c5.5,0,8.1-2.5,8.1-5.2c0-8.1-26.9-2.5-26.9-20
			c0-7.8,6.7-14.2,17.7-14.2c7.4,0,13.6,2.2,18.2,6.5l-5.5,7.4c-3.7-3.3-8.6-5.2-13.6-5.1c-4.2,0-6.6,1.8-6.6,4.6
			c0,7.4,26.8,2.4,26.8,19.8c0,8.5-6.2,15-18.7,15C423.7,280.2,417.3,277.2,412.9,272.8z"/>
	</g>
</g>
<path class="st6" d="M853.8,477.1c-0.1,1.7,0.2,3.3,0.6,4.9c0.5,1.4,1.1,2.7,1.8,4c0.2,0.4,0.4,0.8,0.4,1.3
	c-0.1,0.7-0.5,1.3-1.1,1.6l-3.3,2.3c-0.4,0.3-0.9,0.5-1.5,0.5c-0.6,0-1.2-0.3-1.6-0.8c-0.8-0.8-1.4-1.6-2-2.6
	c-0.6-0.9-1.1-2-1.7-3.3c-3.9,4.9-9.9,7.7-16.2,7.6c-4.1,0.2-8-1.2-11-4c-2.8-2.8-4.2-6.7-4.1-10.6c-0.2-4.3,1.6-8.5,4.8-11.3
	c3.8-3,8.7-4.6,13.5-4.3c2,0,3.9,0.1,5.8,0.4c2,0.3,4.2,0.7,6.3,1.2v-4.1c0.3-3.2-0.6-6.3-2.6-8.8c-2.6-2-5.8-2.9-9-2.6
	c-2,0-4,0.3-5.9,0.7c-2,0.5-4,1.1-5.9,1.9c-0.6,0.3-1.3,0.5-1.9,0.7h-0.9c-0.8,0-1.2-0.6-1.2-1.7v-2.6c0-0.7,0.1-1.3,0.4-1.9
	c0.4-0.5,1-0.9,1.6-1.2c2.2-1.1,4.5-1.9,6.9-2.5c2.8-0.7,5.7-1.1,8.6-1.1c5.2-0.5,10.4,1.1,14.4,4.5c3.3,3.7,5,8.6,4.6,13.6
	L853.8,477.1z M831.4,485.5c1.9,0,3.9-0.4,5.7-1c2-0.7,3.8-1.9,5.2-3.6c0.9-1,1.5-2.1,1.9-3.3c0.4-1.6,0.6-3.2,0.5-4.8v-2.3
	c-1.7-0.4-3.4-0.7-5.1-0.9c-1.7-0.2-3.4-0.3-5.2-0.3c-2.9-0.2-5.8,0.6-8.2,2.2c-1.8,1.5-2.7,3.8-2.6,6.1c-0.2,2.1,0.6,4.3,2,5.8
	C827.2,484.8,829.3,485.6,831.4,485.5z M875.7,491.5c-0.7,0.1-1.5-0.1-2.1-0.5c-0.6-0.6-1-1.3-1.2-2.2l-12.9-42.7
	c-0.3-0.7-0.4-1.5-0.5-2.2c-0.1-0.7,0.3-1.3,1-1.4c0.1,0,0.2,0,0.4,0h5.4c0.8-0.1,1.5,0.1,2.2,0.5c0.5,0.6,0.9,1.4,1.1,2.2l9.3,36.5
	l8.6-36.5c0.1-0.8,0.5-1.5,1.1-2.1c0.7-0.4,1.4-0.6,2.2-0.5h4.4c0.8-0.1,1.6,0.1,2.2,0.5c0.6,0.6,0.9,1.3,1.1,2.2l8.7,37l9.6-37
	c0.2-0.8,0.6-1.6,1.1-2.2c0.6-0.4,1.4-0.6,2.2-0.5h5.1c0.7-0.1,1.3,0.3,1.4,1c0,0.1,0,0.2,0,0.4c0,0.3,0,0.6,0,0.9
	c-0.1,0.5-0.2,0.9-0.4,1.4l-13.3,42.7c-0.2,0.8-0.6,1.6-1.2,2.2c-0.6,0.4-1.4,0.6-2.1,0.5h-4.8c-0.8,0.1-1.6-0.1-2.2-0.6
	c-0.6-0.6-0.9-1.4-1.1-2.2l-8.6-35.6l-8.5,35.5c-0.1,0.8-0.5,1.6-1.1,2.2c-0.7,0.4-1.4,0.6-2.2,0.6H875.7z M946.6,492.9
	c-2.9,0-5.7-0.3-8.5-1c-2.2-0.4-4.4-1.2-6.4-2.2c-1.2-0.5-2-1.7-2-3.1v-2.8c0-1.2,0.4-1.7,1.3-1.7c0.4,0,0.7,0.1,1,0.2l1.4,0.6
	c1.9,0.9,4,1.5,6.1,1.9c2.2,0.4,4.4,0.7,6.6,0.7c2.8,0.2,5.6-0.5,8.1-1.8c1.8-1.1,2.9-3.1,2.9-5.2c0-1.4-0.5-2.8-1.5-3.9
	c-1.7-1.4-3.7-2.4-5.8-2.9l-8-2.5c-3.4-0.9-6.4-2.9-8.6-5.6c-1.8-2.3-2.7-5.1-2.8-8c0-2.1,0.5-4.3,1.5-6.1c1-1.8,2.3-3.3,4-4.5
	c1.7-1.3,3.6-2.3,5.6-2.9c2.3-0.7,4.6-1,6.9-1c1.2,0,2.5,0.1,3.7,0.2c1.3,0.2,2.5,0.4,3.6,0.6s2.2,0.6,3.2,0.9
	c0.8,0.3,1.6,0.6,2.3,1c0.6,0.3,1.2,0.8,1.6,1.4c0.4,0.5,0.5,1.2,0.5,1.8v2.6c0,1.2-0.4,1.7-1.3,1.7c-0.7-0.1-1.5-0.3-2.1-0.7
	c-3.4-1.5-7-2.2-10.6-2.1c-2.5-0.1-5.1,0.4-7.3,1.6c-1.7,1-2.7,2.9-2.6,4.9c0,1.5,0.6,2.9,1.6,3.9c1.8,1.4,3.9,2.5,6.1,3.1l7.8,2.4
	c3.3,0.9,6.3,2.7,8.5,5.3c1.8,2.3,2.7,5.1,2.6,8c0,2.2-0.5,4.4-1.5,6.4c-1,1.9-2.3,3.6-4,4.9c-1.8,1.4-3.9,2.5-6.1,3.1
	C951.9,492.7,949.3,493,946.6,492.9z"/>
<path class="st7" d="M957.1,520.1c-18.2,13.4-44.5,20.6-67,20.6c-30.4,0.2-59.7-11-82.3-31.3c-1.7-1.5-0.2-3.6,1.9-2.5
	c25,14.3,53.4,21.8,82.2,21.8c21.5-0.1,42.8-4.5,62.7-12.9C957.5,514.6,960.1,517.9,957.1,520.1z"/>
<path class="st7" d="M964.6,511.5c-2.3-3-15.4-1.4-21.2-0.7c-1.8,0.2-2.1-1.3-0.5-2.5c10.4-7.3,27.5-5.2,29.4-2.8
	c2,2.5-0.5,19.6-10.3,27.7c-1.5,1.3-2.9,0.6-2.3-1.1C962.1,526.7,967,514.5,964.6,511.5z"/>
<path class="st6" d="M853.8,477.1c-0.1,1.7,0.2,3.3,0.6,4.9c0.5,1.4,1.1,2.7,1.8,4c0.2,0.4,0.4,0.8,0.4,1.3
	c-0.1,0.7-0.5,1.3-1.1,1.6l-3.3,2.3c-0.4,0.3-0.9,0.5-1.5,0.5c-0.6,0-1.2-0.3-1.6-0.8c-0.8-0.8-1.4-1.6-2-2.6
	c-0.6-0.9-1.1-2-1.7-3.3c-3.9,4.9-9.9,7.7-16.2,7.6c-4.1,0.2-8-1.2-11-4c-2.8-2.8-4.2-6.7-4.1-10.6c-0.2-4.3,1.6-8.5,4.8-11.3
	c3.8-3,8.7-4.6,13.5-4.3c2,0,3.9,0.1,5.8,0.4c2,0.3,4.2,0.7,6.3,1.2v-4.1c0.3-3.2-0.6-6.3-2.6-8.8c-2.6-2-5.8-2.9-9-2.6
	c-2,0-4,0.3-5.9,0.7c-2,0.5-4,1.1-5.9,1.9c-0.6,0.3-1.3,0.5-1.9,0.7h-0.9c-0.8,0-1.2-0.6-1.2-1.7v-2.6c0-0.7,0.1-1.3,0.4-1.9
	c0.4-0.5,1-0.9,1.6-1.2c2.2-1.1,4.5-1.9,6.9-2.5c2.8-0.7,5.7-1.1,8.6-1.1c5.2-0.5,10.4,1.1,14.4,4.5c3.3,3.7,5,8.6,4.6,13.6
	L853.8,477.1z M831.4,485.5c1.9,0,3.9-0.4,5.7-1c2-0.7,3.8-1.9,5.2-3.6c0.9-1,1.5-2.1,1.9-3.3c0.4-1.6,0.6-3.2,0.5-4.8v-2.3
	c-1.7-0.4-3.4-0.7-5.1-0.9c-1.7-0.2-3.4-0.3-5.2-0.3c-2.9-0.2-5.8,0.6-8.2,2.2c-1.8,1.5-2.7,3.8-2.6,6.1c-0.2,2.1,0.6,4.3,2,5.8
	C827.2,484.8,829.3,485.6,831.4,485.5z M875.7,491.5c-0.7,0.1-1.5-0.1-2.1-0.5c-0.6-0.6-1-1.3-1.2-2.2l-12.9-42.7
	c-0.3-0.7-0.4-1.5-0.5-2.2c-0.1-0.7,0.3-1.3,1-1.4c0.1,0,0.2,0,0.4,0h5.4c0.8-0.1,1.5,0.1,2.2,0.5c0.5,0.6,0.9,1.4,1.1,2.2l9.3,36.5
	l8.6-36.5c0.1-0.8,0.5-1.5,1.1-2.1c0.7-0.4,1.4-0.6,2.2-0.5h4.4c0.8-0.1,1.6,0.1,2.2,0.5c0.6,0.6,0.9,1.3,1.1,2.2l8.7,37l9.6-37
	c0.2-0.8,0.6-1.6,1.1-2.2c0.6-0.4,1.4-0.6,2.2-0.5h5.1c0.7-0.1,1.3,0.3,1.4,1c0,0.1,0,0.2,0,0.4c0,0.3,0,0.6,0,0.9
	c-0.1,0.5-0.2,0.9-0.4,1.4l-13.3,42.7c-0.2,0.8-0.6,1.6-1.2,2.2c-0.6,0.4-1.4,0.6-2.1,0.5h-4.8c-0.8,0.1-1.6-0.1-2.2-0.6
	c-0.6-0.6-0.9-1.4-1.1-2.2l-8.6-35.6l-8.5,35.5c-0.1,0.8-0.5,1.6-1.1,2.2c-0.7,0.4-1.4,0.6-2.2,0.6H875.7z M946.6,492.9
	c-2.9,0-5.7-0.3-8.5-1c-2.2-0.4-4.4-1.2-6.4-2.2c-1.2-0.5-2-1.7-2-3.1v-2.8c0-1.2,0.4-1.7,1.3-1.7c0.4,0,0.7,0.1,1,0.2l1.4,0.6
	c1.9,0.9,4,1.5,6.1,1.9c2.2,0.4,4.4,0.7,6.6,0.7c2.8,0.2,5.6-0.5,8.1-1.8c1.8-1.1,2.9-3.1,2.9-5.2c0-1.4-0.5-2.8-1.5-3.9
	c-1.7-1.4-3.7-2.4-5.8-2.9l-8-2.5c-3.4-0.9-6.4-2.9-8.6-5.6c-1.8-2.3-2.7-5.1-2.8-8c0-2.1,0.5-4.3,1.5-6.1c1-1.8,2.3-3.3,4-4.5
	c1.7-1.3,3.6-2.3,5.6-2.9c2.3-0.7,4.6-1,6.9-1c1.2,0,2.5,0.1,3.7,0.2c1.3,0.2,2.5,0.4,3.6,0.6s2.2,0.6,3.2,0.9
	c0.8,0.3,1.6,0.6,2.3,1c0.6,0.3,1.2,0.8,1.6,1.4c0.4,0.5,0.5,1.2,0.5,1.8v2.6c0,1.2-0.4,1.7-1.3,1.7c-0.7-0.1-1.5-0.3-2.1-0.7
	c-3.4-1.5-7-2.2-10.6-2.1c-2.5-0.1-5.1,0.4-7.3,1.6c-1.7,1-2.7,2.9-2.6,4.9c0,1.5,0.6,2.9,1.6,3.9c1.8,1.4,3.9,2.5,6.1,3.1l7.8,2.4
	c3.3,0.9,6.3,2.7,8.5,5.3c1.8,2.3,2.7,5.1,2.6,8c0,2.2-0.5,4.4-1.5,6.4c-1,1.9-2.3,3.6-4,4.9c-1.8,1.4-3.9,2.5-6.1,3.1
	C951.9,492.7,949.3,493,946.6,492.9z"/>
<path class="st7" d="M957.1,520.1c-18.2,13.4-44.5,20.6-67,20.6c-30.4,0.2-59.7-11-82.3-31.3c-1.7-1.5-0.2-3.6,1.9-2.5
	c25,14.3,53.4,21.8,82.2,21.8c21.5-0.1,42.8-4.5,62.7-12.9C957.5,514.6,960.1,517.9,957.1,520.1z"/>
<path class="st7" d="M964.6,511.5c-2.3-3-15.4-1.4-21.2-0.7c-1.8,0.2-2.1-1.3-0.5-2.5c10.4-7.3,27.5-5.2,29.4-2.8
	c2,2.5-0.5,19.6-10.3,27.7c-1.5,1.3-2.9,0.6-2.3-1.1C962.1,526.7,967,514.5,964.6,511.5z"/>
</svg>
